<svg xmlns="http://www.w3.org/2000/svg" viewBox="0 0 20 20"><defs><style>.cls-1{fill:#74b62e;}</style></defs><g id="Layer_2" data-name="Layer 2"><g id="Layer_1-2" data-name="Layer 1"><path class="cls-1" d="M14,13.88l-.11,0-1.28-.52a.11.11,0,0,0-.12,0,4.39,4.39,0,0,1-.84.49.15.15,0,0,0-.05.06c-.05.38-.11.75-.16,1.13l0,.26a.28.28,0,0,1-.31.27H8.92a.28.28,0,0,1-.31-.26c-.07-.47-.13-.93-.2-1.4a.09.09,0,0,0-.05-.07,4.26,4.26,0,0,1-.85-.49.14.14,0,0,0-.09,0l-1.28.51a.27.27,0,0,1-.41-.14L4.74,12l-.1-.17a.27.27,0,0,1,.08-.36L5.8,10.6a.13.13,0,0,0,.07-.15c0-.2,0-.4,0-.6s0-.22,0-.34a.15.15,0,0,0,0-.09l-1.1-.86a.28.28,0,0,1-.08-.39c.28-.47.55-.94.82-1.42l.26-.45a.28.28,0,0,1,.39-.14l1.28.52a.11.11,0,0,0,.13,0,4,4,0,0,1,.83-.48.12.12,0,0,0,.05-.07c.07-.46.13-.92.2-1.38a.29.29,0,0,1,.31-.28h2.16a.3.3,0,0,1,.31.28c.06.46.13.92.2,1.39,0,0,0,0,0,0a4.6,4.6,0,0,1,.86.5.13.13,0,0,0,.09,0l1.31-.53a.28.28,0,0,1,.38.15l.41.72.66,1.15a.27.27,0,0,1-.07.39l-1.1.86a.11.11,0,0,0-.05.1,3.09,3.09,0,0,1,0,1,.1.1,0,0,0,.05.1l1.08.85a.28.28,0,0,1,.09.4l-1,1.74-.1.17A.3.3,0,0,1,14,13.88Zm-4-1.94a1.94,1.94,0,1,0,0-3.88,1.94,1.94,0,1,0,0,3.88Z"/><path class="cls-1" d="M10,20A10,10,0,1,1,20,10,10,10,0,0,1,10,20Zm8.46-10a8.47,8.47,0,1,0-8.42,8.48A8.48,8.48,0,0,0,18.47,10Z"/></g></g></svg>