<svg xmlns="http://www.w3.org/2000/svg" viewBox="0 0 13.62 16.92"><defs><style>.cls-1{fill:#141414;}</style></defs><g id="Layer_2" data-name="Layer 2"><g id="Layer_1-2" data-name="Layer 1"><path class="cls-1" d="M7.74,10l.46-.32,3.08-2.23a.92.92,0,0,1,1,1.51L10.84,10c-1.15.83-2.3,1.66-3.44,2.5a.93.93,0,0,1-1.16,0L1.3,8.93a.92.92,0,0,1-.23-1.25.9.9,0,0,1,1.26-.26c.66.45,1.3.93,2,1.41L5.77,9.9l.11.07c0-.07,0-.13,0-.18V2.7c0-.59,0-1.19,0-1.78A.91.91,0,0,1,7.07,0a.85.85,0,0,1,.64.75,5.15,5.15,0,0,1,0,.68V9.81S7.74,9.9,7.74,10Z"/><path class="cls-1" d="M6.8,16.92H.94a.92.92,0,0,1-.87-.57.93.93,0,0,1,.21-1A1,1,0,0,1,1,15.08H12.57a1,1,0,0,1,.94.48.91.91,0,0,1-.81,1.35c-2,0-3.93,0-5.9,0Z"/></g></g></svg>