<svg xmlns="http://www.w3.org/2000/svg" viewBox="0 0 20 20"><defs><style>.cls-1{fill:#74b62e;}</style></defs><g id="Layer_2" data-name="Layer 2"><g id="Layer_1-2" data-name="Layer 1"><path class="cls-1" d="M10,20A10,10,0,1,1,20,10,10,10,0,0,1,10,20Zm8.46-10a8.47,8.47,0,1,0-8.42,8.48A8.48,8.48,0,0,0,18.47,10Z"/><path class="cls-1" d="M11.51,12.3c0,.76,0,1.52,0,2.29a1.51,1.51,0,1,1-3,0c0-1.5,0-3,0-4.52a1.51,1.51,0,1,1,3,0C11.52,10.8,11.51,11.55,11.51,12.3Z"/><path class="cls-1" d="M11.51,5.4a1.51,1.51,0,1,1-3,0,1.51,1.51,0,1,1,3,0Z"/></g></g></svg>