<svg xmlns="http://www.w3.org/2000/svg" viewBox="0 0 20 20"><defs><style>.cls-1{fill:#74b62e;}</style></defs><g id="Layer_2" data-name="Layer 2"><g id="Layer_1-2" data-name="Layer 1"><path class="cls-1" d="M10,15.17H6.43a1.37,1.37,0,0,1-1.38-1.06,1.68,1.68,0,0,1,0-.45c0-1.39,0-2.78,0-4.17a1.48,1.48,0,0,1,.58-1.27.17.17,0,0,0,0-.15A4.51,4.51,0,0,1,6.3,4.89a4.28,4.28,0,0,1,3.16-2A4.4,4.4,0,0,1,14,5.37a4.66,4.66,0,0,1,.41,2.7.19.19,0,0,0,.06.16A1.4,1.4,0,0,1,15,9.37v4.36a1.39,1.39,0,0,1-1.47,1.44ZM12.73,8a3,3,0,0,0-1.21-3A2.72,2.72,0,0,0,8.41,5,3,3,0,0,0,7.28,8ZM9.39,12.59h0c0,.14,0,.29,0,.43a.62.62,0,0,0,.62.62.61.61,0,0,0,.6-.64v-.8a.19.19,0,0,1,.1-.2,1.26,1.26,0,1,0-1.57-2,1.24,1.24,0,0,0,0,1.82.69.69,0,0,1,.27.68Z"/><path class="cls-1" d="M10,20A10,10,0,1,1,20,10,10,10,0,0,1,10,20Zm8.46-10a8.47,8.47,0,1,0-8.42,8.48A8.48,8.48,0,0,0,18.47,10Z"/></g></g></svg>