<svg xmlns="http://www.w3.org/2000/svg" viewBox="0 0 30.85 30.85"><defs><style>.cls-1{fill:none;stroke:#141414;stroke-miterlimit:10;}.cls-2{fill:#141414;}</style></defs><g id="Layer_2" data-name="Layer 2"><g id="Layer_1-2" data-name="Layer 1"><circle class="cls-1" cx="15.43" cy="15.43" r="14.93"/><path class="cls-2" d="M6.85,7.24l2,0L11,7.2c.17,0,.23,0,.23-.23,0-1,0-2.08,0-3.12,0-.18,0-.24.22-.24.6,0,1.21,0,1.81,0,.17,0,.2,0,.2.2l0,3.07a2.15,2.15,0,0,0,0,.23l1.54,0s.11-.13.11-.2c0-.8,0-1.59,0-2.39,0-.24,0-.48,0-.72s0-.17.16-.17l1.91,0a.53.53,0,0,1,.16,0c0,.78,0,1.56,0,2.34q0,.48,0,1c0,.18.05.24.25.27.72.12,1.46.23,2.17.41a4.05,4.05,0,0,1,1.87,1,3.6,3.6,0,0,1,1.07,2.68,3.61,3.61,0,0,1-.47,2,3.4,3.4,0,0,1-1.1,1.1l-.22.14c.28.1.55.17.8.27a3.38,3.38,0,0,1,1.9,1.66,4.21,4.21,0,0,1,.41,2,5.68,5.68,0,0,1-.52,2.47,4,4,0,0,1-2.08,1.93,10.85,10.85,0,0,1-3.64.79c-.22,0-.28.08-.28.29,0,1,0,2.05,0,3.07,0,.28,0,.28-.27.28l-1.75,0c-.18,0-.21-.07-.21-.22l0-3.15c0-.11,0-.19-.13-.19-.51,0-1,0-1.55,0,0,.58,0,1.14,0,1.69s0,1.14,0,1.7c0,.14,0,.19-.18.19-.62,0-1.24,0-1.85,0-.16,0-.21-.07-.21-.22,0-1.05,0-2.1,0-3.15,0-.08,0-.16,0-.26L7,23.69c0-.26.07-.48.11-.7.08-.58.18-1.15.26-1.73,0-.18.1-.24.28-.23.46,0,.92,0,1.38,0a.73.73,0,0,0,.77-.79c0-3.2,0-6.41-.09-9.61a1,1,0,0,0-1-1c-.55,0-1.11,0-1.66,0-.1,0-.18,0-.19-.13,0-.71,0-1.43,0-2.15A.51.51,0,0,1,6.85,7.24ZM13.62,21l.15,0a18.53,18.53,0,0,0,3.07-.16,5.27,5.27,0,0,0,2-.68,1.92,1.92,0,0,0,.23-3,3.49,3.49,0,0,0-1.53-.72,16.05,16.05,0,0,0-3.73-.19c-.17,0-.2.07-.19.22,0,.6,0,1.2,0,1.81C13.6,19.17,13.61,20.06,13.62,21ZM17,13.69c.14-.06.38-.15.61-.27a1.83,1.83,0,0,0,.48-2.84,2.91,2.91,0,0,0-1.65-.77,13.43,13.43,0,0,0-2.69-.1c-.18,0-.24,0-.23.23l0,3.89c0,.15.06.18.19.18h.7A8.92,8.92,0,0,0,17,13.69Z"/></g></g></svg>