<svg xmlns="http://www.w3.org/2000/svg" viewBox="0 0 30.85 30.85"><defs><style>.cls-1{fill:#141414;}.cls-2{fill:none;stroke:#141414;stroke-miterlimit:10;}</style></defs><g id="Layer_2" data-name="Layer 2"><g id="Layer_1-2" data-name="Layer 1"><path class="cls-1" d="M6.47,16.67V16.6l.42-1.16.38-1.11c0-.1.07-.15.18-.15h6.37c0,.07,0,.12-.05.18l-.72,2.1a.23.23,0,0,1-.26.19H6.47Z"/><path class="cls-1" d="M24.38,12.34q-.91,2.84-1.82,5.69a4.32,4.32,0,0,1-3.71,2.7c-3.9,0-7.8,0-11.7,0H6.9L7,20.33c.22-.68.45-1.36.66-2,.05-.18.14-.21.3-.21H18.51c.16,0,.23,0,.28-.19q.8-2.48,1.61-4.93c0-.06,0-.12.05-.2H9.5c0-.08,0-.13.05-.19l.75-2.28a.19.19,0,0,1,.22-.17H22.41a2.45,2.45,0,0,1,.76.11,1.72,1.72,0,0,1,1.17,1.37c0,.05,0,.1,0,.15Z"/><circle class="cls-2" cx="15.43" cy="15.43" r="14.93"/></g></g></svg>