<svg xmlns="http://www.w3.org/2000/svg" viewBox="0 0 30.85 30.85"><defs><style>.cls-1{fill:#141414;}.cls-2{fill:#1e1e1e;}.cls-3{fill:none;stroke:#141414;stroke-miterlimit:10;}</style></defs><g id="Layer_2" data-name="Layer 2"><g id="Layer_1-2" data-name="Layer 1"><path class="cls-1" d="M15.42,15.42h0s0,0,0,0h0Z"/><path class="cls-1" d="M15.45,2.47v0a1.48,1.48,0,0,1,0,.21v9.15a.81.81,0,0,1,0,.16c0,.05,0,.07-.09.09l-.8.37L13.42,13l-1.35.62L11,14.11l-1.33.6-1.13.52c-.31.14-.62.27-.92.42l-.08,0h0l.35-.58,2-3.31L12,8.21l2-3.29,1.44-2.4a.15.15,0,0,0,0-.07h0Z"/><path class="cls-2" d="M23.37,15.65h0l-1.89,1.12-6,3.53-.07,0s0,0,0-.06V12.22a.57.57,0,0,1,0-.13c0-.06.05,0,.09,0l.51.24,1.51.68,1.31.6,1.32.6,1.13.51,1.14.52.88.4Z"/><path class="cls-1" d="M15.45,28.36l0,0h0a.07.07,0,0,0,0-.06L13,25l-2.46-3.46L8.16,18.15l-.62-.87,0-.08.08,0,3.35,2,3.86,2.28.65.38a.08.08,0,0,1,0,.08v6.21A1.15,1.15,0,0,1,15.45,28.36Z"/><path class="cls-1" d="M15.45,2.47s0,0,0,0h0Z"/><path class="cls-2" d="M7.49,15.68v0l1.22-.56,1.59-.72,1.21-.55L13.28,13l1.21-.54.86-.4a.2.2,0,0,0,.08,0s0,0,0,0v8.19s0,.08,0,.11,0,0-.07,0a3.79,3.79,0,0,0-.34-.2L7.56,15.72Z"/><path class="cls-1" d="M23.35,17.2h0s0,.05,0,.08l-7.12,10-.75,1.05s0,0,0,0V21.88L17,20.93l6.26-3.7Z"/><path class="cls-1" d="M15.43,12.06V2.59s0-.07,0-.1q3.91,6.51,7.85,13a.91.91,0,0,1,.07.14c-.18-.06-.34-.15-.52-.23l-.63-.28L21.83,15l-.66-.3-.38-.17-.85-.39-.43-.2-.62-.27-.38-.18-.85-.38-.43-.2-.62-.28-.41-.19-.74-.34Z"/><circle class="cls-3" cx="15.43" cy="15.43" r="14.93"/></g></g></svg>