<svg xmlns="http://www.w3.org/2000/svg" viewBox="0 0 30.85 30.85"><defs><style>.cls-1{fill:#141414;}.cls-2{fill:none;stroke:#141414;stroke-miterlimit:10;}</style></defs><g id="Layer_2" data-name="Layer 2"><g id="Layer_1-2" data-name="Layer 1"><path class="cls-1" d="M14.71,20l7.6.17c-.09.36-.16.69-.25,1s-.26.92-.37,1.38c-.05.24-.15.3-.39.3H9.14L10.42,18l-1.88.76c.2-.7.39-1.34.59-2,0-.07.15-.12.25-.16.44-.17.89-.33,1.32-.53a.61.61,0,0,0,.31-.34c.66-2.46,1.32-4.91,2-7.37.07-.26.16-.37.45-.37,1.32,0,2.64,0,4,0l.35,0-1.5,5.88L18.5,13a6.29,6.29,0,0,0-.3,1.05,1.49,1.49,0,0,1-1.26,1.36,5.18,5.18,0,0,0-1,.38.54.54,0,0,0-.27.29c-.34,1.26-.65,2.51-1,3.77A.54.54,0,0,0,14.71,20Z"/><circle class="cls-2" cx="15.43" cy="15.43" r="14.93"/></g></g></svg>