<svg xmlns="http://www.w3.org/2000/svg" viewBox="0 0 30.85 30.85"><defs><style>.cls-1{fill:#141414;}.cls-2{fill:none;stroke:#141414;stroke-miterlimit:10;}</style></defs><g id="Layer_2" data-name="Layer 2"><g id="Layer_1-2" data-name="Layer 1"><path class="cls-1" d="M19.54,25.15A14.69,14.69,0,0,0,12,8.59a2.38,2.38,0,0,0,.24.26A16.48,16.48,0,0,1,18,19.44a12.11,12.11,0,0,1-.64,5.81.59.59,0,0,1-.61.47A9.84,9.84,0,0,1,6.57,16.51c-.13-3.62-.05-7.26-.07-10.89,0-.26,0-.5.4-.5A20.9,20.9,0,0,1,19.35,8.89a11.84,11.84,0,0,1,4.46,5.74,9.49,9.49,0,0,1-.31,7.1,6.28,6.28,0,0,1-3.73,3.39A2.23,2.23,0,0,1,19.54,25.15Z"/><circle class="cls-2" cx="15.43" cy="15.43" r="14.93"/></g></g></svg>