<svg xmlns="http://www.w3.org/2000/svg" viewBox="0 0 120 120"><defs><style>.cls-1{fill:#74b62e;}</style></defs><g id="Layer_2" data-name="Layer 2"><g id="Layer_1-2" data-name="Layer 1"><path class="cls-1" d="M59.85,83c3.76-3.79,7.24-7.32,10.74-10.83q11.47-11.49,23-23a4,4,0,0,1,4.25-1.3,3.66,3.66,0,0,1,2.63,3.06,4.11,4.11,0,0,1-1.52,3.76Q85.75,67.79,72.6,81c-3.22,3.22-6.43,6.45-9.68,9.64-1.91,1.88-4,1.89-5.87,0Q38.89,72.48,20.76,54.31a3.78,3.78,0,0,1-.12-5.56c1.6-1.56,3.9-1.45,5.66.31q16,16,32,32C58.83,81.59,59.26,82.22,59.85,83Z"/><path class="cls-1" d="M8.55,65.5c7.48.1,5.3-.87,10.74,4.54q21,20.89,41.87,41.87c.43.43.86.86,1.28,1.3,1.74,1.8,1.84,4.1.25,5.66s-3.86,1.52-5.66-.27c-4.78-4.74-9.53-9.52-14.29-14.28Q27.6,89.19,12.44,74.07a3.47,3.47,0,0,0-2.1-.86c-2-.12-4,0-6.07,0C1.75,73.13.05,71.61,0,69.38s1.64-3.81,4.14-3.87C5.61,65.47,7.08,65.5,8.55,65.5Z"/><path class="cls-1" d="M51.19,48.21c.06-6.16,2.77-11.28,6.21-16.16A58.08,58.08,0,0,0,62.46,24,13.35,13.35,0,0,0,59.77,8.56a15.59,15.59,0,0,0-2-1.44A3.82,3.82,0,0,1,56.47,2,3.74,3.74,0,0,1,61.73.55c4.86,2.71,7.54,7.09,9,12.28,2,7,0,13.29-3.82,19.17-1.21,1.87-2.67,3.57-3.85,5.46a37.16,37.16,0,0,0-3.18,5.84,13.2,13.2,0,0,0,5,16.15,3.82,3.82,0,0,1,1.26,5.19,3.66,3.66,0,0,1-5,1.41,22.31,22.31,0,0,1-4.6-3.66A21.64,21.64,0,0,1,51.19,48.21Z"/><path class="cls-1" d="M111.61,65.51c1.52,0,3,0,4.56,0a3.81,3.81,0,1,1,0,7.62c-2.18.07-4.36,0-6.53.06a3.52,3.52,0,0,0-2.1.85Q89,92.58,70.41,111.18c-.32.32-.63.66-1,1a3.83,3.83,0,1,1-5.31-5.51c2.79-2.85,5.64-5.66,8.46-8.49C82.75,88,92.94,77.84,103.05,67.63a6.17,6.17,0,0,1,5.22-2.15c1.11.1,2.23,0,3.34,0Z"/></g></g></svg>