<svg xmlns="http://www.w3.org/2000/svg" width="24.111" height="20.821" viewBox="0 0 24.111 20.821">
  <defs>
    <style>
      .cls-1 {
        fill: #141414;
      }
    </style>
  </defs>
  <g id="Group_5" data-name="Group 5" transform="translate(-177.506 -763.913)">
    <path id="Path_66" data-name="Path 66" class="cls-1" d="M19.187,30.39H12.022a4.77,4.77,0,0,1-4.884-4.884V15.6a1.41,1.41,0,0,1,1.255-1.518c1.154-.3,2.28-.708,3.414-1.066C15.179,11.932,18.613,10.886,22,9.76a3.508,3.508,0,0,1,3.319.58,4.493,4.493,0,0,1,1.9,3.373.451.451,0,0,0,.432.526,4.324,4.324,0,0,1,3.589,4.527c-.067,2.253,0,4.513,0,6.746a4.756,4.756,0,0,1-3.279,4.621,6.112,6.112,0,0,1-1.714.243C23.909,30.4,21.548,30.39,19.187,30.39ZM7.839,18.031v7.3a4.156,4.156,0,0,0,4.277,4.311c4.722-.067,9.492,0,14.242,0a4.392,4.392,0,0,0,.944-.074A4.048,4.048,0,0,0,30.521,25.6V18.375a2.4,2.4,0,0,0-.047-.351Zm22.519-.749a7.354,7.354,0,0,0-.479-.837,4.048,4.048,0,0,0-3.434-1.592H8.811a1.039,1.039,0,0,0-.486.047c-.182.1-.439.283-.452.452-.054.58-.02,1.255-.02,1.929Zm-3.872-3.238a3.663,3.663,0,0,0-2.4-3.508,2.8,2.8,0,0,0-1.525-.142c-3.643,1.113-7.273,2.28-10.9,3.434a4.257,4.257,0,0,0-.4.189Z" transform="translate(170.373 754.34)"/>
    <path id="Path_67" data-name="Path 67" class="cls-1" d="M35.518,30.72a2.129,2.129,0,1,1-2.1,2.112A2.1,2.1,0,0,1,35.518,30.72Zm1.349,2.139a1.35,1.35,0,1,0-1.38,1.319A1.35,1.35,0,0,0,36.867,32.859Z" transform="translate(161.82 747.46)"/>
  </g>
</svg>
