<svg xmlns="http://www.w3.org/2000/svg" width="35" height="35" viewBox="0 0 35 35">
  <defs>
    <style>
      .cls-1 {
        fill: #dfdfdf;
      }

      .cls-2 {
        fill: #74b62e;
      }
    </style>
  </defs>
  <g id="Group_3" data-name="Group 3" transform="translate(-255 -759)">
    <rect id="Rectangle_23" data-name="Rectangle 23" class="cls-1" width="35" height="35" rx="12" transform="translate(255 759)"/>
    <path id="Path_63" data-name="Path 63" class="cls-2" d="M17.841,29.315V32.03a1.121,1.121,0,0,1-.413.843c-.16.093-.6-.093-.793-.278-2.04-2.024-4.064-4.047-6.054-6.012a.734.734,0,0,1,0-1.206c1.99-2.032,4.013-4.047,6.037-6.045.194-.185.624-.379.784-.287a1.13,1.13,0,0,1,.422.843c.051.843,0,1.762,0,2.723H27.8c.7,0,1.02.245.978.961v1.433l4.6-4.6-4.6-4.519V17.5c0,.556-.236.843-.843.843H22.875a1.037,1.037,0,0,1-.767-.624c-.076-.481.363-.607.8-.6h4.621V14.442a1.108,1.108,0,0,1,.379-.843,1.02,1.02,0,0,1,.843.287c2.007,1.973,3.988,3.971,5.986,5.953a.759.759,0,0,1,0,1.256c-2,1.981-3.98,3.988-5.986,5.961a1.037,1.037,0,0,1-.843.287c-.211-.093-.371-.531-.388-.843-.042-.843,0-1.686,0-2.673h-9.84c-.97,0-1.079-.118-1.088-1.079V21.33l-4.629,4.6,4.629,4.612v-1.56c0-.531.228-.927.843-.919h5a1.062,1.062,0,0,1,.843.59c.093.531-.363.641-.843.641C20.952,29.307,19.46,29.315,17.841,29.315Z" transform="translate(249.734 753.409)"/>
  </g>
</svg>
