<svg xmlns="http://www.w3.org/2000/svg" viewBox="0 0 50 50"><defs><style>.cls-1{fill:#141414;}.cls-2{fill:#74b62e;}</style></defs><g id="Layer_2" data-name="Layer 2"><g id="Layer_1-2" data-name="Layer 1"><rect class="cls-1" width="50" height="50" rx="12"/><path class="cls-2" d="M19.25,32.24c0,1.13,0,2.18,0,3.22a1.33,1.33,0,0,1-.49,1c-.19.11-.71-.11-.94-.33C15.4,33.73,13,31.33,10.64,29a.87.87,0,0,1,0-1.43C13,25.16,15.4,22.77,17.8,20.4c.23-.22.74-.45.93-.34a1.34,1.34,0,0,1,.5,1c.06,1,0,2.09,0,3.23h2.47c3.12,0,6.24,0,9.36,0,.83,0,1.21.29,1.16,1.14,0,.61,0,1.22,0,1.7l5.46-5.46-5.46-5.36c0,.6,0,1.26,0,1.92s-.28,1-1,1c-2,0-4,0-6,0a1.23,1.23,0,0,1-.91-.74c-.09-.57.43-.72.95-.71h5.48c0-1.11,0-2.15,0-3.18,0-.35.2-.87.45-1a1.21,1.21,0,0,1,1,.34c2.38,2.34,4.73,4.71,7.1,7.06a.9.9,0,0,1,0,1.49c-2.37,2.35-4.72,4.73-7.1,7.07a1.23,1.23,0,0,1-1,.34c-.25-.11-.44-.63-.46-1-.05-1,0-2,0-3.17H19.06c-1.15,0-1.28-.14-1.29-1.28V22.77l-5.49,5.45,5.49,5.47c0-.58,0-1.22,0-1.85s.27-1.1,1-1.09c2,0,4,0,5.93,0a1.26,1.26,0,0,1,1,.7c.11.63-.43.76-1,.76C22.94,32.23,21.17,32.24,19.25,32.24Z"/></g></g></svg>